<svg xmlns="http://www.w3.org/2000/svg" xmlns:xlink="http://www.w3.org/1999/xlink" version="1.1" id="Icon" x="0px" y="0px" width="100px" height="100px" viewBox="0 0 100 100" enable-background="new 0 0 100 100" xml:space="preserve">
<path d="M99.567,63.715c-3.43-0.822-4.494-3.885-6.175-6.327c-1.258-1.825-2.321-3.785-3.439-5.705  c-0.535-0.917-1.291-1.841-1.416-2.829c-0.174-1.385,0.44-2.883,0.199-4.241c-0.253-1.429-0.754-3.606-1.312-5.685  c-0.824-3.081-1.772-5.941-2.225-5.813c-0.626,0.178-1.139,2.202-1.494,3.345c-0.072,0.235-0.14,0.436-0.198,0.573  c-0.024,0.016-0.046,0.03-0.069,0.045c-0.396-1.08-0.744-1.759-0.969-1.696c-0.62,0.177-1.13,2.165-1.485,3.313  c-5.151-3.443-10.256-6.956-15.477-10.283c-1.697-1.081-3.631-2.048-5.582-2.422c-6.385-1.222-12.619-0.406-18.598,2.184  c-6.277,2.718-11.622,6.609-14.837,12.79c-1.848,3.552-3.175,7.372-4.821,11.034c-1.495,3.327-2.762,6.963-6.455,8.523  c-4.947,2.088-10.004,3.914-15.014,5.854c0,0.137,0,0.274,0,0.412c8.729-0.996,20.846-3.817,24.471-8.404  c2.946-3.247,4.466-4.943,4.732-4.767l-5.016,6.527c-0.77,1.492-3.246,2.933-3.547,3.665c-0.301,0.733,0.263,2.145,0.69,2.894  c0.001,0.003,0.002,0.006,0.004,0.009c0.769,1.332,1.56,3.083,2.787,3.595c1.14,0.476,4.062-0.64,4.323-0.737  c0.261-0.097,0.377-0.526,0.044-0.664c-0.333-0.137-1.05-0.191-1.553-0.352c-0.87-0.279-1.896-0.426-2.513-0.998  c-0.064-0.06-0.104-0.165-0.132-0.289c-0.115-0.499,0.039-1.397,0.347-1.796c1.909-2.479,3.875-4.926,6.018-7.198  c0.78-0.826,2.141-1.384,2.716,0.551c0.069,0.232,1.165,0.747,1.397,0.703c2.341-0.45,2.502,1.062,3.227,2.643  c1.272,2.774,5.843,9.647,6.659,10.151c1.27,0.783,4.968,0.006,5.298-0.061c0.329-0.066,0.549-0.558,0.179-0.783  c-0.372-0.228-1.216-0.427-1.787-0.716c-0.985-0.498-1.918-0.905-2.545-1.704c-0.027-0.035-0.563-1.03-0.579-1.034  c-0.796-1.502-0.867-3.277-1.03-5.012c-0.044-0.476,0.604-1.151,1.094-1.519c2.091-1.57,4.581-2.815,5.274-5.6  c0.425-1.706,1.743-1.646,2.633-1.262c1.284,0.554,3.283,1.704,3.266,2.564c-0.032,1.578-2.185,6.785-2.646,7.842  c-0.454,1.038-0.887,2.218-0.828,3.307c0.044,0.796,0.849,1.593,1.417,2.309c0.459,0.58,1.07,1.04,1.614,1.553  c0.145-0.145,0.291-0.289,0.436-0.435c-0.766-2.137-0.01-3.731,1.176-5.162c0.195-0.155,6.114-4.322,9.041-5.893  c1.695-0.909,3.717-1.321,5.645-1.634c0.742-0.121,2.005,0.428,2.387,1.06c1.289,2.137,2.46,4.345,3.649,6.543  c0.549,1.014,1.102,2.026,1.672,3.027c0.562,0.985,1.248,2.037,2.155,2.641c0.664,0.442,1.784,0.273,2.699,0.247  c0.738-0.021,1.473-0.235,2.209-0.365c-0.029-0.202-0.058-0.406-0.088-0.609c-2.744-0.841-3.342-3.109-3.718-5.501  c-0.048-0.309-0.094-0.619-0.141-0.929c-0.263-1.757-0.503-3.534-0.773-5.424c0.819-0.485,1.654-0.751,2.781,0.285  c0.739,0.679,0.993,1.479,1.498,2.148c0.64,0.85,2.053,1.071,3.015,1.734c1.452,1.002,2.718,2.293,4.223,3.194  c1.207,0.724,2.613,1.268,3.998,1.51C100.709,69.104,100.021,63.823,99.567,63.715z M90.27,55.943  c-0.153,0.388-0.777,0.507-1.394,0.264c-0.616-0.241-0.992-0.754-0.839-1.142c0.152-0.39,0.776-0.507,1.392-0.265  C90.046,55.043,90.422,55.555,90.27,55.943z"/>
</svg>